<svg xmlns="http://www.w3.org/2000/svg" version="1.1" xmlns:xlink="http://www.w3.org/1999/xlink" xmlns:svgjs="http://svgjs.dev/svgjs" width="1000" height="1000" viewBox="0 0 1000 1000"><rect width="1000" height="1000" fill="#282634"></rect><g transform="matrix(0.7,0,0,0.7,149.90044910179654,149.90044910179637)"><svg viewBox="0 0 334 334" data-background-color="#282634" preserveAspectRatio="xMidYMid meet" height="1000" width="1000" xmlns="http://www.w3.org/2000/svg" xmlns:xlink="http://www.w3.org/1999/xlink"><g id="tight-bounds" transform="matrix(1,0,0,1,0.04749999999998522,0.04750000000001364)"><svg viewBox="0 0 333.90454557049503 333.90454557049503" height="333.90454557049503" width="333.90454557049503"><g><svg></svg></g><g><svg viewBox="0 0 333.90454557049503 333.90454557049503" height="333.90454557049503" width="333.90454557049503"><g><path d="M0 166.952c0-92.205 74.747-166.952 166.952-166.952 92.205 0 166.952 74.747 166.953 166.952 0 92.205-74.747 166.952-166.953 166.953-92.205 0-166.952-74.747-166.952-166.953zM166.952 316.63c82.665 0 149.677-67.013 149.678-149.678 0-82.665-67.013-149.677-149.678-149.677-82.665 0-149.677 67.013-149.677 149.677 0 82.665 67.013 149.677 149.677 149.678z" data-fill-palette-color="tertiary" fill="#ff4057" stroke="transparent"></path><ellipse rx="160.27418187383762" ry="160.27418187383762" cx="166.95227278524752" cy="166.95227278524752" fill="#ff4057" stroke="transparent" stroke-width="0" fill-opacity="1" data-fill-palette-color="tertiary"></ellipse></g><g transform="matrix(1,0,0,1,89.28621950333664,71.17305217166896)"><svg viewBox="0 0 155.33210656382175 191.55844122715712" height="191.55844122715712" width="155.33210656382175"><g><svg viewBox="0 0 155.33210656382175 191.55844122715712" height="191.55844122715712" width="155.33210656382175"><g><svg viewBox="0 0 155.33210656382175 191.55844122715712" height="191.55844122715712" width="155.33210656382175"><g><svg viewBox="0 0 155.33210656382175 191.55844122715712" height="191.55844122715712" width="155.33210656382175"><g id="textblocktransform"><svg viewBox="0 0 155.33210656382175 191.55844122715712" height="191.55844122715712" width="155.33210656382175" id="textblock"><g><svg viewBox="0 0 155.33210656382175 191.55844122715712" height="191.55844122715712" width="155.33210656382175"><g transform="matrix(1,0,0,1,0,0)"><svg width="155.33210656382175" viewBox="4.35 -35.83 29.049999999999997 35.83" height="191.55844122715712" data-palette-color="#282634"><path d="M6.85-35.83L6.85-35.83Q7.5-35.83 7.81-35.66 8.13-35.5 8.53-35L8.53-35 29.28-8Q29.2-8.65 29.18-9.26 29.15-9.88 29.15-10.45L29.15-10.45 29.15-35.83 33.4-35.83 33.4 0 30.95 0Q30.38 0 29.99-0.2 29.6-0.4 29.23-0.88L29.23-0.88 8.5-27.85Q8.55-27.23 8.58-26.63 8.6-26.03 8.6-25.53L8.6-25.53 8.6 0 4.35 0 4.35-35.83 6.85-35.83Z" opacity="1" transform="matrix(1,0,0,1,0,0)" fill="#282634" class="wordmark-text-0" data-fill-palette-color="quaternary" id="text-0"></path></svg></g></svg></g></svg></g></svg></g><g></g></svg></g></svg></g></svg></g></svg></g><defs></defs></svg><rect width="333.90454557049503" height="333.90454557049503" fill="none" stroke="none" visibility="hidden"></rect></g></svg></g></svg>